<?xml version="1.0" encoding="UTF-8" standalone="no"?>
<svg
   xmlns:dc="http://purl.org/dc/elements/1.1/"
   xmlns:cc="http://creativecommons.org/ns#"
   xmlns:rdf="http://www.w3.org/1999/02/22-rdf-syntax-ns#"
   xmlns:svg="http://www.w3.org/2000/svg"
   xmlns="http://www.w3.org/2000/svg"
   viewBox="0 0 1055.6667 760.23468"
   height="760.23468"
   width="1055.6667"
   xml:space="preserve"
   id="svg2"
   version="1.1"><metadata
     id="metadata8"><rdf:RDF><cc:Work
         rdf:about=""><dc:format>image/svg+xml</dc:format><dc:type
           rdf:resource="http://purl.org/dc/dcmitype/StillImage" /></cc:Work></rdf:RDF></metadata><defs
     id="defs6"><clipPath
       id="clipPath18"
       clipPathUnits="userSpaceOnUse"><path
         id="path16"
         d="M 0,570.176 H 791.75 V 0 H 0 Z" /></clipPath></defs><g
     transform="matrix(1.3333333,0,0,-1.3333333,0,760.23467)"
     id="g10"><g
       id="g12"><g
         clip-path="url(#clipPath18)"
         id="g14"><g
           transform="translate(0,570.1761)"
           id="g20"><path
             id="path22"
             style="fill:#db0f17;fill-opacity:1;fill-rule:nonzero;stroke:none"
             d="m 0,0 v -226.294 c 0,-458.51 791.75,-458.51 791.75,0 V 0 Z" /></g><g
           transform="translate(248.0659,416.3294)"
           id="g24"><path
             id="path26"
             style="fill:#ffffff;fill-opacity:1;fill-rule:nonzero;stroke:none"
             d="m 0,0 c -26.807,0 -56.271,-16.037 -61.725,-43.077 -5.781,-28.904 19.953,-35.105 36.457,-35.291 37.296,-0.466 59.72,21.771 64.895,44.382 C 44.615,-12.214 25.408,0 0,0 m -18.275,-65.268 c -5.032,-0.531 -10.042,1.173 -13.706,4.662 -3.145,4.639 -3.987,10.464 -2.285,15.804 2.658,12.821 13.986,31.935 33.753,31.935 4.004,0.339 7.946,-1.152 10.722,-4.056 2.815,-3.945 3.657,-8.966 2.285,-13.613 -6.76,-32.82 -26.853,-34.732 -30.769,-34.732" /></g><g
           transform="translate(471.9355,414.2318)"
           id="g28"><path
             id="path30"
             style="fill:#ffffff;fill-opacity:1;fill-rule:nonzero;stroke:none"
             d="m 0,0 c 12.082,2.258 24.353,3.351 36.644,3.263 28.531,0 46.014,-9.324 37.855,-30.769 -3.543,-9.324 -7.18,-18.648 -10.303,-26.946 -4.336,-11.329 -3.403,-15.665 -2.47,-19.674 -6.732,1.863 -13.734,2.557 -20.7,2.051 -12.541,-0.373 -17.949,-3.543 -38.415,-3.543 -22.191,0 -30.303,10.956 -29.464,22.611 0.871,11.191 8.455,20.731 19.161,24.102 8.15,3.026 16.723,4.756 25.408,5.129 10.584,0.79 21.212,0.79 31.795,0 1.166,3.822 2.843,11.608 -15.945,11.701 -13.603,0.291 -27.17,-1.501 -40.232,-5.315 z M 20.746,-38.042 C 6.76,-39.487 1.539,-43.124 0.326,-49.837 c -0.931,-5.408 2.565,-10.443 15.571,-9.884 7.511,0.251 14.896,1.994 21.726,5.129 l 6.48,16.923 c -7.766,0.552 -15.566,0.427 -23.31,-0.373" /></g><g
           transform="translate(437.9033,412.973)"
           id="g32"><path
             id="path34"
             style="fill:#ffffff;fill-opacity:1;fill-rule:nonzero;stroke:none"
             d="m 0,0 c -13.66,0 -14.266,3.729 -36.41,3.729 -31.796,0 -57.949,-23.31 -61.679,-49.277 -1.322,-7.377 0.808,-14.952 5.781,-20.559 5.658,-5.286 13.195,-8.09 20.933,-7.786 12.69,-0.881 25.323,2.392 35.99,9.324 -6.62,-19.627 -29.184,-23.73 -44.336,-23.637 -7.466,-0.42 -14.936,0.756 -21.911,3.451 l -6.667,-16.597 c 8.033,-1.925 16.262,-2.91 24.522,-2.937 37.297,0 61.12,13.287 71.049,39.487 L 12.681,2.051 C 8.537,0.927 4.286,0.239 0,0 m -58.462,-59.767 c -15.478,0 -13.986,15.058 -8.624,26.807 5.335,12.284 16.812,20.794 30.116,22.331 6.018,0.767 12.08,-1.045 16.69,-4.989 -10.49,-40.839 -31.748,-44.056 -38.042,-44.056" /></g><g
           transform="translate(177.1567,361.6907)"
           id="g36"><path
             id="path38"
             style="fill:#ffffff;fill-opacity:1;fill-rule:nonzero;stroke:none"
             d="m 0,0 c -8.128,-3.537 -16.833,-5.559 -25.688,-5.967 -24.988,0 -32.634,15.151 -30.023,29.93 4.382,24.335 27.972,42.844 55.944,42.844 8.003,0.011 15.927,-1.574 23.31,-4.662 l 8.112,15.851 c -8.121,3.392 -16.84,5.12 -25.641,5.081 -44.522,0 -86.154,-25.408 -92.028,-59.207 -5.222,-29.837 20.559,-46.62 52.214,-46.62 8.671,0.111 17.303,1.19 25.735,3.216 z" /></g><g
           transform="translate(602.7051,417.3084)"
           id="g40"><path
             id="path42"
             style="fill:#ffffff;fill-opacity:1;fill-rule:nonzero;stroke:none"
             d="M 0,0 5.595,14.965 -22.378,10.303 -26.247,0.187 h -12.4 l -4.663,-12.354 h 12.308 l -14.825,-36.691 c -3.777,-9.324 -4.01,-16.13 -0.607,-20.792 3.404,-4.663 9.931,-6.853 20.187,-6.853 6.612,0.178 13.183,1.117 19.58,2.797 l 5.968,14.452 c -4.263,-1.681 -8.761,-2.688 -13.333,-2.984 -2.298,-0.394 -4.638,0.415 -6.201,2.145 -1.678,2.191 -1.212,6.62 1.166,12.634 0,0 12.26,30.07 14.359,35.292 h 18.647 l 4.663,12.354 z" /></g><g
           transform="translate(688.9521,357.2151)"
           id="g44"><path
             id="path46"
             style="fill:#ffffff;fill-opacity:1;fill-rule:nonzero;stroke:none"
             d="m 0,0 v 0 c -9.137,-3.704 -18.904,-5.604 -28.764,-5.594 -6.508,-0.404 -12.844,2.189 -17.203,7.039 -3.331,4.47 -4.255,10.29 -2.471,15.572 h 60.839 l 0.281,0.792 c 4.661,13.24 4.148,24.755 -1.726,32.634 -5.314,6.947 -14.685,10.49 -27.599,10.49 -28.764,0 -53.287,-16.037 -59.673,-38.975 -3.505,-9.964 -1.752,-21.024 4.662,-29.417 6.992,-8.438 19.254,-13.101 34.498,-13.101 9.851,0.192 19.628,1.762 29.045,4.663 z m -20.232,47.273 c 3.74,0.431 7.466,-0.915 10.069,-3.636 2.269,-4.178 2.392,-9.192 0.327,-13.473 h -34.593 c 3.331,10.472 13.212,17.459 24.197,17.109" /></g><g
           transform="translate(688.9521,357.2151)"
           id="g48"><path
             id="path50"
             style="fill:#ffffff;fill-opacity:1;fill-rule:nonzero;stroke:none"
             d="m 0,0 v 0 c -9.137,-3.704 -18.904,-5.604 -28.764,-5.594 -6.508,-0.404 -12.844,2.189 -17.203,7.039 -3.331,4.47 -4.255,10.29 -2.471,15.572 h 60.839 l 0.281,0.792 c 4.661,13.24 4.148,24.755 -1.726,32.634 -5.314,6.947 -14.685,10.49 -27.599,10.49 -28.764,0 -53.287,-16.037 -59.673,-38.975 -3.505,-9.964 -1.752,-21.024 4.662,-29.417 6.992,-8.438 19.254,-13.101 34.498,-13.101 9.851,0.192 19.628,1.762 29.045,4.663 z m -20.232,47.273 c 3.74,0.431 7.466,-0.915 10.069,-3.636 2.269,-4.178 2.392,-9.192 0.327,-13.473 h -34.593 c 3.331,10.472 13.212,17.459 24.197,17.109" /></g><g
           transform="translate(716.0859,432.2737)"
           id="g52"><path
             id="path54"
             style="fill:#ffffff;fill-opacity:1;fill-rule:nonzero;stroke:none"
             d="m 0,0 c 6.07,-0.258 10.783,-5.388 10.525,-11.459 -0.256,-6.071 -5.387,-10.784 -11.458,-10.526 -5.904,0.251 -10.555,5.12 -10.536,11.029 0.047,6.102 5.032,11.011 11.134,10.964 C -0.224,0.007 -0.112,0.004 0,0 m -0.28,-2.75 c -4.556,0.102 -8.333,-3.508 -8.436,-8.064 -0.103,-4.556 3.507,-8.333 8.063,-8.436 4.556,-0.103 8.334,3.507 8.436,8.063 0.002,0.077 0.002,0.154 0.002,0.231 0.155,4.374 -3.264,8.046 -7.639,8.202 -0.142,0.004 -0.284,0.006 -0.426,0.004 m -1.259,-13.427 h -3.123 v 10.116 c 1.462,0.26 2.944,0.385 4.429,0.374 1.416,0.15 2.844,-0.125 4.102,-0.793 0.693,-0.534 1.091,-1.364 1.072,-2.238 0,-1.026 -0.979,-1.911 -2.378,-2.284 1.176,-0.348 2.012,-1.389 2.098,-2.611 0.146,-0.831 0.38,-1.644 0.7,-2.425 H 1.864 c -0.373,0.662 -0.61,1.391 -0.699,2.145 0,1.026 -0.652,1.539 -1.679,1.539 h -1.025 z m 0,5.781 h 0.933 c 1.072,0 1.864,0.513 1.864,1.212 0,0.699 -0.745,1.259 -1.725,1.259 h -1.072 z" /></g><g
           transform="translate(325.6885,442.9964)"
           id="g56"><path
             id="path58"
             style="fill:#ffffff;fill-opacity:1;fill-rule:nonzero;stroke:none"
             d="m 0,0 -39.86,-102.891 h 26.433 L 26.48,0 Z" /></g><g
           transform="translate(564.6162,304.9075)"
           id="g60"><path
             id="path62"
             style="fill:#ffffff;fill-opacity:1;fill-rule:nonzero;stroke:none"
             d="m 0,0 v 0 c -20.83,-23.929 -46.179,-43.511 -74.592,-57.623 -56.426,-27.633 -122.456,-27.633 -178.881,0 -28.426,14.093 -53.778,33.677 -74.592,57.623 l -7.6,-19.581 c 64.037,-94.638 192.669,-119.446 287.308,-55.409 21.987,14.878 40.906,33.847 55.723,55.876 z" /></g></g></g></g></svg>